<svg width="79" height="71" viewBox="0 0 79 71" fill="none" xmlns="http://www.w3.org/2000/svg">
<path d="M36.8554 0.38209C31.4257 0.830362 27.1669 1.87222 22.7425 3.83894C18.0872 5.90391 14.0032 8.75786 10.537 12.3511C3.36268 19.811 0.0357714 29.6218 1.34194 39.5619C1.89682 43.7885 3.46038 48.2904 5.63087 51.8793C7.9009 55.6275 10.4642 58.5604 14.0301 61.4681C19.9217 66.2637 27.3484 69.2777 35.3216 70.0934C37.1863 70.2921 41.4707 70.3435 43.0446 70.1977C52.2208 69.346 60.2641 65.9734 66.5924 60.3257C72.9579 54.6449 76.7521 47.7166 77.9378 39.599C78.1647 38.0739 78.2377 33.5937 78.0695 32.0486C77.4038 26.0521 75.1798 20.4769 71.5054 15.5825C68.5749 11.6787 64.2636 7.92221 60.0207 5.57646C58.6126 4.79739 56.1875 3.64291 54.8779 3.12329C51.8372 1.92211 48.2508 1.04192 44.4397 0.560426C43.0989 0.391008 38.1622 0.275871 36.8554 0.38209ZM43.2792 2.56196C45.9984 2.81764 48.045 3.20139 50.5207 3.89735C61.2666 6.94667 70.0802 14.6614 73.7899 24.2539C75.376 28.347 76.0357 32.2074 75.864 36.4532C75.7548 39.064 75.411 41.2307 74.7055 43.7032C72.6373 50.8874 67.8183 57.315 61.134 61.7917C57.4122 64.2898 52.7299 66.2961 48.4631 67.2211C43.0167 68.4119 37.9581 68.5294 32.5884 67.593C24.0611 66.1053 16.2165 61.6694 10.8193 55.2841C3.9321 47.1093 1.6757 36.5691 4.68309 26.5304C7.17656 18.2065 13.5498 10.8486 21.9885 6.56136C25.815 4.61483 30.0304 3.3223 34.4132 2.74037C37.1385 2.38699 40.6427 2.31528 43.2792 2.56196Z" fill="black"/>
<path d="M33.1347 27.3035L32.936 46.9107L39.602 46.9648L46.268 47.0188L46.4667 27.4117L46.6653 7.8045L39.9993 7.75043L33.3333 7.69637L33.1347 27.3035ZM45.5472 27.4042L45.3562 46.2605L39.5637 46.2135L33.7711 46.1665L33.9622 27.3102L34.1532 8.454L39.9457 8.50098L45.7382 8.54795L45.5472 27.4042Z" fill="black"/>
<path d="M35.4146 11.0092L35.4023 12.219L39.9536 12.2559L44.5141 12.2929L44.4986 11.0996L44.483 9.91458L39.9596 9.85286L35.4269 9.79941L35.4146 11.0092Z" fill="black"/>
<path d="M35.3849 13.9461L35.3809 14.3466L39.8587 14.3662C42.3322 14.3696 44.3827 14.3779 44.4194 14.3782C44.4654 14.3786 44.4854 14.2202 44.469 14.0198L44.445 13.6692L39.9216 13.6074L35.3889 13.554L35.3849 13.9461Z" fill="black"/>
<path d="M35.2475 27.4875L35.1284 39.2435L39.4774 39.2787C41.8588 39.2981 43.9093 39.298 44.0291 39.2739L44.2319 39.2255L44.3505 27.5113L44.4692 15.7971L39.9179 15.7601L35.3667 15.7232L35.2475 27.4875ZM41.4222 26.1191C41.8539 26.1643 42.4783 26.2528 42.8271 26.3057L43.4422 26.4108L43.4322 27.3954C43.4206 28.5384 43.5691 28.4061 42.0592 28.5858C40.7428 28.7336 38.6373 28.7166 37.416 28.5481C35.901 28.3356 36.065 28.4788 36.0766 27.3357L36.0866 26.3512L36.7588 26.2565C38.4072 26.0112 40.0628 25.9662 41.4222 26.1191Z" fill="black"/>
<path d="M35.1113 40.9205L35.1079 41.2543L39.641 41.2743L44.1649 41.286L44.1957 40.9692L44.2264 40.6607L39.6751 40.6238L35.1147 40.5868L35.1113 40.9205Z" fill="black"/>
<path d="M35.0832 43.7156L35.0718 44.842L39.623 44.8789L44.1835 44.9159L44.1672 43.806L44.1507 42.7044L39.6273 42.6427L35.0946 42.5892L35.0832 43.7156Z" fill="black"/>
<path d="M23.4011 15.0755C22.0997 15.5572 18.8152 18.451 17.0364 20.6728C11.4204 27.7115 10.241 37.0307 13.9386 45.0877C16.1878 49.9873 20.2639 54.2675 25.3207 57.0454C25.9516 57.3926 27.9468 58.3183 28.6521 58.5911C31.8761 59.8438 35.5105 60.5325 39.0503 60.5612C43.3717 60.5962 46.7341 59.9893 50.6206 58.4855C53.7408 57.2759 56.3409 55.6699 58.9855 53.3049C61.1011 51.4196 62.4878 49.7871 63.7689 47.678C66.3405 43.435 67.498 39.0137 67.2695 34.3391C67.0176 29.2471 65.1987 24.5346 61.9565 20.5365C60.5489 18.7979 58.3083 16.677 56.9199 15.7645C55.8329 15.0465 54.6111 14.9364 53.4566 15.4361C52.3298 15.9276 51.667 16.9151 51.6829 18.0668C51.6894 19.235 51.9885 19.6713 53.8037 21.1129C56.9143 23.5829 59.3135 27.2822 60.2682 31.0698C60.6751 32.6585 60.784 33.7108 60.7651 35.5797C60.7467 37.3902 60.6165 38.4405 60.2152 39.9309C58.4946 46.392 53.0894 51.6884 46.1446 53.7348C43.7467 54.4413 41.8774 54.7015 39.3399 54.6726C36.7011 54.6428 34.9384 54.3698 32.5462 53.6078C24.9111 51.1845 19.4563 45.0323 18.4456 37.698C18.2916 36.5619 18.3184 33.9087 18.4954 32.7753C18.8392 30.6087 19.4928 28.7198 20.5887 26.7428C22.0028 24.2093 23.4352 22.6022 26.4202 20.2149C27.4956 19.3558 27.7482 18.924 27.7589 17.8727C27.7654 17.2303 27.7304 17.0548 27.523 16.6442C26.9823 15.5634 25.9953 14.963 24.6625 14.9105C24.0559 14.8805 23.8349 14.9121 23.4011 15.0755Z" fill="black"/>
</svg>
